<svg width="117" height="42" viewBox="0 0 117 42" fill="none" xmlns="http://www.w3.org/2000/svg">
<path d="M7.0825 2.62433H2V32.1371H7.0825V2.62433Z" fill="#1C1C1C"/>
<path d="M29.1743 28.8007V17.6535C29.1743 14.8316 28.1453 12.8204 26.1653 11.62C24.7778 10.7469 22.9069 10.3883 20.4904 10.3883C14.4569 10.3883 11.6038 13.6779 11.4479 17.2949H16.203C16.3277 15.1902 17.7153 13.8806 20.5216 13.8806C23.0628 13.8806 24.3256 15.1122 24.3256 16.9363C24.3256 18.7604 22.5795 19.3996 19.0872 19.8362C14.0515 20.4286 10.4033 21.5823 10.4033 26.3842C10.4033 30.5156 13.4902 32.6515 17.6217 32.6515C20.9893 32.6515 22.8913 31.264 24.2789 29.3931H24.3568C24.4348 30.8275 24.7154 31.6538 25.074 32.1371H29.9538V31.7785C29.4705 31.4667 29.1587 30.5468 29.1587 28.8007H29.1743ZM24.4504 24.4353C24.4504 26.8207 22.5483 29.1905 19.0872 29.1905C17.1384 29.1905 15.4391 28.5201 15.4391 26.2594C15.4391 23.9988 17.232 23.2817 20.3189 22.6892C21.8623 22.3774 23.4526 21.9409 24.4504 21.3017V24.4353Z" fill="#1C1C1C"/>
<path d="M43.5015 20.7873C42.6285 23.3597 41.6774 27.3665 41.6774 27.3665H41.5995C41.5995 27.3665 40.7264 23.4065 39.8066 20.7873L36.3143 10.9497H30.9512L38.2475 29.3621C38.6841 30.5158 38.4814 32.4957 38.4814 32.8855C38.0449 34.5849 37.0938 35.2241 35.3945 35.2241C34.88 35.2241 33.4924 35.1461 33.2897 35.0214H33.0091V39.1061C33.3677 39.2308 36.0649 39.34 36.7041 39.34C40.1496 39.34 41.9737 37.9836 43.7198 33.3065L51.936 10.9341H46.8535L43.4859 20.7717L43.5015 20.7873Z" fill="#1C1C1C"/>
<path d="M62.9279 10.4039C56.6605 10.4039 52.4199 15.2838 52.4199 21.5979C52.4199 27.9121 56.4734 32.7919 63.2085 32.7919C68.4002 32.7919 71.8145 29.97 72.8435 26.1659H67.9169C67.2465 27.9121 65.6563 28.941 63.2397 28.941C59.7163 28.941 57.7675 26.4777 57.4089 22.8296H73.2332C73.28 18.9008 72.2822 15.5644 70.2243 13.3817C68.4314 11.4797 66.0148 10.4039 62.9279 10.4039ZM57.5024 19.6491C57.939 16.3127 59.6383 14.0521 62.9435 14.0521C65.9992 14.0521 67.8701 16.1568 68.0572 19.6491H57.5024Z" fill="#1C1C1C"/>
<path d="M81.4176 14.7692H81.2929V10.9651H76.4131V32.1526H81.4488V21.5199C81.4488 17.4352 83.9433 15.1745 87.2797 15.2057C87.7942 15.2057 88.1995 15.2525 88.6672 15.3616H88.8231V10.8404C88.4645 10.6845 88.0748 10.6377 87.4668 10.6377C84.7696 10.6377 82.7428 12.0253 81.402 14.7692H81.4176Z" fill="#1C1C1C"/>
<path d="M101.327 19.1658C98.1158 18.5734 95.9331 18.2148 95.9331 16.3439C95.9331 14.8784 97.1648 13.8027 99.5034 13.8027C101.998 13.8027 103.354 14.8005 103.713 16.6245H108.515C108 12.9296 105.178 10.4039 99.5501 10.4039C94.5923 10.4039 91.178 12.7113 91.178 16.7181C91.178 21.52 94.9509 22.4242 98.9109 23.2193C102.247 23.8585 104.383 24.2483 104.383 26.353C104.383 28.0524 103.074 29.2528 100.298 29.2528C97.5234 29.2528 95.6525 28.1771 95.2627 25.6359H90.4297C90.7415 29.9232 94.2338 32.8231 100.267 32.8231C105.506 32.8231 109.31 30.4845 109.31 26.0412C109.31 20.8807 105.35 19.9297 101.343 19.1814L101.327 19.1658Z" fill="#1C1C1C"/>
<path d="M109.979 10.5599H112.084V10.9809H111.273V13.1636H110.79V10.9809H109.979V10.5599Z" fill="#1C1C1C"/>
<path d="M112.412 10.56H113.051L113.472 11.7916C113.581 12.1035 113.706 12.6647 113.706 12.6647C113.706 12.6647 113.831 12.1035 113.924 11.7916L114.345 10.56H115V13.1636H114.548V11.8072C114.548 11.5266 114.579 10.9965 114.579 10.9965C114.579 10.9965 114.47 11.4798 114.392 11.7293L113.893 13.1636H113.503L113.005 11.7293C112.927 11.4642 112.817 10.9965 112.817 10.9965C112.817 10.9965 112.849 11.5266 112.849 11.8072V13.1636H112.412V10.56Z" fill="#1C1C1C"/>
</svg>
